<svg width="163" height="149" viewBox="0 0 163 149" fill="none" xmlns="http://www.w3.org/2000/svg">
<path fill-rule="evenodd" clip-rule="evenodd" d="M81.5055 0.447266C75.4796 0.677461 69.4645 0.907657 62.661 3.18769C55.0639 5.81232 48.1109 10.0627 42.2722 15.6511C36.2679 21.4499 31.8403 28.7394 27.5746 36.9277C23.309 45.1161 19.1729 54.1815 15.1556 63.9155C11.1384 73.6495 7.21824 84.0521 4.60485 91.4841C1.99146 98.9161 0.68477 103.367 0.490385 108.683C0.234606 114.926 1.64891 121.123 4.58323 126.616C8.35563 133.663 13.9098 139.562 20.674 143.706C27.445 147.696 35.134 148.967 41.7107 149C47.9968 149.243 54.2084 147.55 59.5292 144.144C65.3068 140.472 71.4083 134.344 74.1621 129.751C76.9159 125.158 76.3219 122.078 75.026 119.557C73.7301 117.036 71.6675 114.997 66.6027 110.02C61.5379 105.044 53.471 97.1294 48.4926 92.0431C43.5142 86.9569 41.6243 84.6988 40.6307 81.2897C39.4874 77.367 39.67 73.1687 41.1492 69.3634C42.9353 65.3123 46.2214 62.1383 50.296 60.5283C52.3745 59.7034 54.5985 59.3234 56.8285 59.412C59.0585 59.5007 61.2464 60.0561 63.255 61.0435C67.4126 63.0933 71.0088 67.1272 73.9569 70.3061C76.9051 73.485 79.2269 75.7869 81.5163 78.1108C83.8273 75.7979 86.1492 73.485 89.0757 70.3061C92.0023 67.1272 95.62 63.0933 99.7776 61.0435C101.786 60.0561 103.974 59.5007 106.204 59.412C108.434 59.3234 110.658 59.7034 112.737 60.5283C116.808 62.1397 120.09 65.3138 121.873 69.3634C123.36 73.1664 123.547 77.3664 122.402 81.2897C121.398 84.6988 119.518 86.9569 114.54 92.0431C109.562 97.1294 101.484 105.055 96.4191 110.02C91.3543 114.986 89.3133 117.014 87.9958 119.557C86.6783 122.1 86.1168 125.158 88.8705 129.751C91.6243 134.344 97.7258 140.472 103.503 144.144C108.824 147.55 115.036 149.243 121.322 149C128.667 149.107 135.914 147.283 142.359 143.706C149.1 139.534 154.63 133.622 158.385 126.572C161.309 121.076 162.723 114.881 162.477 108.639C162.272 103.323 160.966 98.8723 158.363 91.4403C155.76 84.0082 151.883 73.6056 147.812 63.8716C143.741 54.1376 139.67 45.0613 135.393 36.8839C131.117 28.7065 126.689 21.406 120.696 15.6073C114.855 10.037 107.906 5.80204 100.318 3.18769C93.5465 0.907657 87.5206 0.677461 81.5055 0.447266Z" fill="#002D4C"/>
</svg>
