<svg width="590" height="133" viewBox="0 0 590 133" fill="none" xmlns="http://www.w3.org/2000/svg">
<g filter="url(#filter0_d_202_72)">
<path fill-rule="evenodd" clip-rule="evenodd" d="M71.74 0.335205C66.702 0.527968 61.673 0.720731 55.9939 2.63C49.6508 4.81833 43.8417 8.36126 38.9567 13.0208C33.9368 17.8858 30.244 24.0358 26.6687 30.8376C23.0933 37.6394 19.6443 45.2856 16.2856 53.4459C12.9269 61.6062 9.64951 70.3081 7.46456 76.5316C5.27961 82.7551 4.18714 86.4818 4.02462 90.9337C3.81077 96.1617 4.99322 101.351 7.44648 105.951C10.5856 111.854 15.2091 116.805 20.8451 120.298C26.2319 123.296 32.2924 124.821 38.433 124.722C43.6878 124.929 48.8811 123.515 53.3304 120.665C58.1608 117.59 63.262 112.459 65.5643 108.613C67.8666 104.767 67.3701 102.187 66.2867 100.076C65.2032 97.9649 63.4787 96.2576 59.2442 92.0902C55.0097 87.9229 48.2653 81.2955 44.1031 77.0364C39.9409 72.7773 38.3698 70.8864 37.5302 68.0316C36.573 64.7463 36.7288 61.2293 37.9726 58.0447C39.4573 54.6495 42.2034 51.9896 45.6109 50.6463C47.348 49.9541 49.2071 49.6343 51.0715 49.707C52.9359 49.7796 54.7654 50.2431 56.4453 51.0685C59.9304 52.7942 62.9279 56.1721 65.3928 58.8341C67.8576 61.496 69.7988 63.4237 71.7129 65.3697C73.645 63.4328 75.5862 61.4869 78.033 58.8341C80.4797 56.1813 83.5044 52.7942 86.9895 51.0685C88.6694 50.2431 90.4989 49.7796 92.3633 49.707C94.2278 49.6343 96.0868 49.9541 97.8239 50.6463C101.231 51.9896 103.977 54.6495 105.462 58.0447C106.706 61.2293 106.862 64.7463 105.905 68.0316C105.065 70.8864 103.494 72.7773 99.3317 77.0364C95.1695 81.2955 88.416 87.9321 84.1906 92.0902C79.9651 96.2484 78.2406 97.9465 77.1482 100.076C76.0557 102.206 75.5681 104.767 77.8705 108.613C80.1728 112.459 85.274 117.59 90.1043 120.665C94.5537 123.515 99.747 124.929 105.002 124.722C111.142 124.821 117.203 123.296 122.59 120.298C128.226 116.805 132.849 111.854 135.988 105.951C138.437 101.349 139.62 96.1613 139.41 90.9337C139.248 86.4818 138.155 82.7551 135.97 76.5316C133.785 70.3081 130.553 61.597 127.149 53.4459C123.745 45.2948 120.342 37.6944 116.766 30.8376C113.191 23.9807 109.543 17.8858 104.478 13.0208C99.6037 8.36572 93.8073 4.82304 87.477 2.63C81.807 0.720731 76.769 0.527968 71.74 0.335205Z" fill="#002D4C"/>
<path d="M204.477 94.6687L201.84 86.5161H181.53L178.893 94.6687C178.685 95.3254 178.286 95.8956 177.755 96.2987C177.223 96.7018 176.585 96.9171 175.932 96.9141H170.659C170.351 96.9185 170.047 96.8444 169.773 96.698C169.498 96.5517 169.261 96.3374 169.081 96.0734C168.901 95.8094 168.783 95.5033 168.738 95.181C168.693 94.8586 168.722 94.5295 168.822 94.2214L184.993 46.7034C185.219 46.0644 185.623 45.5141 186.153 45.126C186.682 44.738 187.311 44.5309 187.954 44.5325H195.302C195.943 44.5411 196.567 44.7523 197.095 45.139C197.622 45.5257 198.029 46.0703 198.263 46.7034L214.364 94.2214C214.464 94.5228 214.495 94.8451 214.455 95.1618C214.415 95.4785 214.305 95.7806 214.133 96.0433C213.962 96.3061 213.734 96.522 213.468 96.6734C213.203 96.8247 212.907 96.9072 212.606 96.9141H207.333C206.698 96.8941 206.083 96.6682 205.572 96.2667C205.062 95.8652 204.679 95.3075 204.477 94.6687ZM198.966 77.4597L191.698 54.7815L184.43 77.4597H198.966Z" fill="#002D4C"/>
<path d="M252.906 73.6283V94.1939C252.908 94.5518 252.846 94.9067 252.725 95.2378C252.604 95.569 252.425 95.8698 252.198 96.1229C251.972 96.376 251.703 96.5763 251.407 96.7121C251.111 96.8479 250.794 96.9165 250.474 96.914H246.754C246.434 96.9152 246.117 96.8457 245.822 96.7095C245.526 96.5732 245.258 96.3729 245.032 96.1201C244.805 95.8672 244.626 95.5669 244.505 95.2363C244.383 94.9057 244.321 94.5514 244.322 94.1939V75.5955C244.322 70.6824 242.495 66.9739 237.589 66.9739C232.54 66.9739 230.284 71.1342 230.284 75.5955V94.1939C230.291 94.9046 230.046 95.5895 229.603 96.0991C229.16 96.6087 228.555 96.9016 227.919 96.914H224.158C223.522 96.9016 222.917 96.6087 222.474 96.0991C222.031 95.5895 221.786 94.9046 221.793 94.1939V61.3078C221.787 60.9543 221.844 60.603 221.96 60.274C222.076 59.9451 222.248 59.6449 222.468 59.3905C222.688 59.1362 222.95 58.9327 223.24 58.7917C223.53 58.6507 223.842 58.575 224.158 58.5689H227.945C228.58 58.5813 229.185 58.8743 229.628 59.3838C230.071 59.8934 230.316 60.5783 230.31 61.289V63.275C232.203 60.169 235.317 57.6277 240.316 57.6277C248.984 57.6747 252.906 65.468 252.906 73.6283Z" fill="#002D4C"/>
<path d="M262.056 49.4326C262.063 48.4563 262.338 47.504 262.846 46.6962C263.354 45.8884 264.073 45.2614 264.912 44.8944C265.75 44.5275 266.671 44.437 267.557 44.6346C268.444 44.8321 269.256 45.3088 269.891 46.0043C270.526 46.6997 270.956 47.5828 271.126 48.5418C271.296 49.5008 271.198 50.4926 270.846 51.3919C270.493 52.2912 269.902 53.0576 269.146 53.594C268.389 54.1305 267.503 54.413 266.598 54.4058C265.386 54.389 264.23 53.8573 263.38 52.9262C262.529 51.9951 262.054 50.7398 262.056 49.4326ZM262.326 94.2819V62.4575C262.325 62.1115 262.388 61.7687 262.51 61.4488C262.632 61.1289 262.812 60.8382 263.038 60.5935C263.265 60.3489 263.535 60.155 263.831 60.0231C264.128 59.8913 264.445 59.824 264.766 59.8252H268.497C268.818 59.8228 269.137 59.8892 269.434 60.0206C269.731 60.1521 270.001 60.3459 270.228 60.5908C270.454 60.8357 270.634 61.1269 270.756 61.4473C270.878 61.7678 270.939 62.1111 270.937 62.4575V94.2819C270.939 94.6283 270.878 94.9717 270.756 95.2922C270.634 95.6126 270.454 95.9038 270.228 96.1487C270.001 96.3936 269.731 96.5874 269.434 96.7188C269.137 96.8503 268.818 96.9167 268.497 96.9142H264.766C264.445 96.9155 264.128 96.8482 263.831 96.7163C263.535 96.5845 263.265 96.3906 263.038 96.146C262.812 95.9013 262.632 95.6106 262.51 95.2907C262.388 94.9708 262.325 94.628 262.326 94.2819Z" fill="#002D4C"/>
<path d="M333.434 72.923V94.1907C333.441 94.9023 333.178 95.588 332.702 96.0982C332.226 96.6084 331.576 96.9016 330.894 96.914H326.826C326.483 96.9165 326.142 96.8478 325.824 96.7118C325.506 96.5759 325.217 96.3754 324.974 96.122C324.731 95.8686 324.539 95.5674 324.408 95.2359C324.278 94.9043 324.212 94.5491 324.214 94.1907V74.8924C324.214 70.1244 322.325 66.9394 318.041 66.9394C313.756 66.9394 311.506 70.5013 311.506 74.8924V94.1907C311.508 94.5491 311.442 94.9043 311.312 95.2359C311.181 95.5674 310.989 95.8686 310.746 96.122C310.503 96.3754 310.214 96.5759 309.896 96.7118C309.578 96.8478 309.237 96.9165 308.894 96.914H304.899C304.555 96.9165 304.214 96.8478 303.896 96.7118C303.578 96.5759 303.289 96.3754 303.046 96.122C302.803 95.8686 302.611 95.5674 302.48 95.2359C302.35 94.9043 302.284 94.5491 302.286 94.1907V74.8924C302.286 70.1244 300.397 66.9394 296.113 66.9394C291.829 66.9394 289.578 70.5013 289.578 74.8924V94.1907C289.58 94.5491 289.514 94.9043 289.384 95.2359C289.254 95.5674 289.061 95.8686 288.818 96.122C288.575 96.3754 288.286 96.5759 287.968 96.7118C287.65 96.8478 287.309 96.9165 286.966 96.914H282.971C282.627 96.9165 282.286 96.8478 281.968 96.7118C281.65 96.5759 281.361 96.3754 281.118 96.122C280.875 95.8686 280.683 95.5674 280.552 95.2359C280.422 94.9043 280.356 94.5491 280.358 94.1907V61.2667C280.356 60.9084 280.422 60.5532 280.552 60.2216C280.683 59.8901 280.875 59.5889 281.118 59.3355C281.361 59.0821 281.65 58.8816 281.968 58.7457C282.286 58.6097 282.627 58.541 282.971 58.5435H287.011C287.355 58.541 287.695 58.6097 288.013 58.7457C288.331 58.8816 288.62 59.0821 288.863 59.3355C289.106 59.5889 289.299 59.8901 289.429 60.2216C289.56 60.5532 289.626 60.9084 289.623 61.2667V62.6236C291.512 59.7967 294.486 57.6294 299.358 57.6294C304.23 57.6294 307.628 60.0512 309.517 63.6131C310.751 61.7372 312.411 60.209 314.35 59.1649C316.288 58.1208 318.444 57.5932 320.626 57.6294C329.077 57.6294 333.434 64.7438 333.434 72.923Z" fill="#002D4C"/>
<path d="M372.661 58.5584H376.608C376.948 58.5558 377.284 58.6258 377.598 58.7643C377.913 58.9028 378.198 59.1069 378.438 59.3649C378.678 59.6229 378.868 59.9296 378.997 60.2672C379.126 60.6048 379.191 60.9665 379.189 61.3314V94.8569C379.191 95.2218 379.126 95.5835 378.997 95.9211C378.868 96.2587 378.678 96.5654 378.438 96.8234C378.198 97.0814 377.913 97.2855 377.598 97.424C377.284 97.5625 376.948 97.6324 376.608 97.6299H372.661C372.322 97.6311 371.986 97.5603 371.672 97.4214C371.358 97.2825 371.074 97.0782 370.834 96.8205C370.594 96.5627 370.404 96.2565 370.274 95.9195C370.145 95.5825 370.079 95.2214 370.08 94.8569V93.005C367.785 96.2482 364.124 98.551 358.472 98.551C347.211 98.551 340.755 88.3034 340.755 78.1325C340.755 67.9617 347.211 57.6277 358.472 57.6277C364.133 57.6277 367.794 59.9401 370.08 63.1737V61.3314C370.079 60.9669 370.145 60.6057 370.274 60.2687C370.404 59.9317 370.594 59.6255 370.834 59.3677C371.074 59.11 371.358 58.9058 371.672 58.7669C371.986 58.628 372.322 58.5571 372.661 58.5584ZM369.723 78.1325C369.723 72.0396 366.151 67.0309 359.9 67.0309C353.65 67.0309 350.078 72.1164 350.078 78.1325C350.078 84.1487 353.65 89.2341 359.9 89.2341C366.151 89.2341 369.687 84.1583 369.687 78.1517L369.723 78.1325Z" fill="#002D4C"/>
<path d="M390.933 44.5325H394.97C395.647 44.5447 396.292 44.8346 396.765 45.339C397.237 45.8434 397.498 46.5213 397.491 47.2247V94.2221C397.498 94.9255 397.237 95.6034 396.765 96.1078C396.292 96.6121 395.647 96.902 394.97 96.9143H390.933C390.592 96.9155 390.254 96.8467 389.939 96.7119C389.624 96.577 389.338 96.3788 389.097 96.1285C388.856 95.8783 388.665 95.581 388.535 95.2538C388.405 94.9266 388.339 94.576 388.34 94.2221V47.2247C388.34 46.8712 388.407 46.5211 388.537 46.1944C388.668 45.8678 388.858 45.571 389.099 45.321C389.34 45.071 389.626 44.8727 389.94 44.7374C390.255 44.6021 390.592 44.5325 390.933 44.5325Z" fill="#002D4C"/>
<path d="M461.547 82.4532C461.547 90.6553 455.983 98.5513 442.639 98.5513C434.32 98.5513 426.721 95.4987 423.398 88.8646C423.226 88.5232 423.13 88.1468 423.115 87.7624C423.1 87.3779 423.168 86.9949 423.313 86.6404C423.458 86.286 423.678 85.969 423.955 85.7119C424.233 85.4549 424.563 85.2641 424.92 85.1533L429.476 83.6595C430.019 83.4686 430.609 83.475 431.148 83.6775C431.687 83.8801 432.142 84.2666 432.438 84.7728C433.888 87.3151 436.94 89.7739 442.558 89.7739C447.627 89.7739 451.679 87.7605 451.679 83.2141C451.679 78.0738 445.961 77.6934 437.93 75.6058C427.738 72.9985 424.335 67.7841 424.335 60.5563C424.335 50.7119 431.646 44.5325 442.198 44.5325C449.509 44.5325 455.505 47.8077 458.404 53.8109C458.562 54.1688 458.642 54.5582 458.638 54.9513C458.633 55.3445 458.545 55.7319 458.379 56.0861C458.214 56.4402 457.974 56.7525 457.678 57.0006C457.382 57.2488 457.037 57.4269 456.667 57.5222L452.111 58.6356C451.571 58.7756 451.001 58.7267 450.491 58.4966C449.981 58.2665 449.559 57.8683 449.293 57.3645C448.131 55.2119 445.691 53.3469 441.694 53.3469C437.57 53.3469 434.032 55.583 434.032 59.8418C434.032 65.6501 440.469 66.5501 445.169 67.6635C457.216 70.5305 461.547 74.112 461.547 82.4532Z" fill="#002D4C"/>
<path d="M498.945 58.5584H502.882C503.222 58.5558 503.559 58.6258 503.873 58.7641C504.188 58.9025 504.474 59.1065 504.715 59.3643C504.956 59.6222 505.146 59.9288 505.276 60.2665C505.406 60.6041 505.472 60.9661 505.471 61.3314V94.8569C505.472 95.2222 505.406 95.5841 505.276 95.9218C505.146 96.2594 504.956 96.5661 504.715 96.8239C504.474 97.0818 504.188 97.2858 503.873 97.4242C503.559 97.5625 503.222 97.6324 502.882 97.6299H498.945C498.605 97.6324 498.268 97.5625 497.953 97.4242C497.639 97.2858 497.353 97.0818 497.112 96.8239C496.871 96.5661 496.68 96.2594 496.551 95.9218C496.421 95.5841 496.355 95.2222 496.356 94.8569V93.005C494.061 96.2482 490.41 98.551 484.75 98.551C473.492 98.551 467.037 88.3034 467.037 78.1325C467.037 67.9617 473.492 57.6277 484.75 57.6277C490.419 57.6277 494.07 59.9401 496.356 63.1737V61.3314C496.355 60.9661 496.421 60.6041 496.551 60.2665C496.68 59.9288 496.871 59.6222 497.112 59.3643C497.353 59.1065 497.639 58.9025 497.953 58.7641C498.268 58.6258 498.605 58.5558 498.945 58.5584ZM495.999 78.1325C495.999 72.0396 492.428 67.0309 486.178 67.0309C479.929 67.0309 476.358 72.1164 476.358 78.1325C476.358 84.1487 479.929 89.2341 486.178 89.2341C492.428 89.2341 495.999 84.1583 495.999 78.1517V78.1325Z" fill="#002D4C"/>
<path d="M540.668 59.265H545.582C545.902 59.2635 546.219 59.34 546.504 59.4878C546.788 59.6357 547.032 59.8505 547.215 60.1137C547.397 60.3768 547.513 60.6804 547.551 60.9981C547.59 61.3158 547.55 61.6381 547.436 61.9371L535.217 94.7601C534.989 95.386 534.575 95.9276 534.03 96.3125C533.485 96.6975 532.835 96.9074 532.168 96.9143H526.355C525.688 96.9061 525.038 96.6957 524.494 96.3109C523.949 95.9261 523.535 95.3853 523.305 94.7601L511.096 61.9371C510.979 61.6382 510.938 61.3152 510.975 60.9966C511.013 60.678 511.128 60.3734 511.311 60.1096C511.494 59.8458 511.739 59.6308 512.025 59.4836C512.311 59.3363 512.629 59.2613 512.95 59.265H517.864C518.57 59.2712 519.257 59.496 519.83 59.9084C520.403 60.3208 520.833 60.9004 521.062 61.5672L529.257 85.921L537.442 61.5672C537.675 60.8975 538.11 60.3163 538.688 59.9038C539.266 59.4914 539.958 59.2682 540.668 59.265Z" fill="#002D4C"/>
<path d="M585.978 79.2058C585.968 79.9177 585.689 80.5977 585.2 81.1012C584.712 81.6047 584.052 81.8919 583.36 81.9018H557.69C559.041 87.0733 563.279 89.8461 568.467 89.8461C571.191 89.8583 573.831 88.8759 575.918 87.0733C576.222 86.769 576.617 86.5805 577.039 86.5386C577.46 86.4967 577.883 86.6041 578.238 86.8431L582.504 89.4623C582.763 89.6259 582.983 89.8481 583.147 90.112C583.312 90.3759 583.416 90.6746 583.451 90.9859C583.487 91.2972 583.454 91.6128 583.355 91.9089C583.255 92.2051 583.091 92.4741 582.876 92.6957C579.002 96.5319 573.812 98.6356 568.439 98.5484C555.874 98.5484 547.566 89.9996 547.566 78.1312C547.566 65.879 556.47 57.6277 566.94 57.6277C577.744 57.6277 586.499 65.4088 585.978 79.2058ZM576.58 74.351C575.648 69.1891 572.239 66.3395 567.144 66.3395C562.487 66.3395 558.845 69.3426 557.718 74.351H576.58Z" fill="#002D4C"/>
</g>
<defs>
<filter id="filter0_d_202_72" x="0" y="0.335205" width="590" height="132.407" filterUnits="userSpaceOnUse" color-interpolation-filters="sRGB">
<feFlood flood-opacity="0" result="BackgroundImageFix"/>
<feColorMatrix in="SourceAlpha" type="matrix" values="0 0 0 0 0 0 0 0 0 0 0 0 0 0 0 0 0 0 127 0" result="hardAlpha"/>
<feOffset dy="4"/>
<feGaussianBlur stdDeviation="2"/>
<feComposite in2="hardAlpha" operator="out"/>
<feColorMatrix type="matrix" values="0 0 0 0 0 0 0 0 0 0 0 0 0 0 0 0 0 0 0.25 0"/>
<feBlend mode="normal" in2="BackgroundImageFix" result="effect1_dropShadow_202_72"/>
<feBlend mode="normal" in="SourceGraphic" in2="effect1_dropShadow_202_72" result="shape"/>
</filter>
</defs>
</svg>
