<svg width="138" height="43" viewBox="0 0 138 43" fill="none" xmlns="http://www.w3.org/2000/svg">
<g filter="url(#filter0_d_454_321)">
<path fill-rule="evenodd" clip-rule="evenodd" d="M19.1309 0C18.0056 0.0542309 16.8823 0.108462 15.6138 0.645606C14.1969 1.26126 12.8993 2.25801 11.8082 3.56891C10.6869 4.93759 9.86207 6.66781 9.06344 8.58139C8.26482 10.495 7.49443 12.6461 6.74421 14.9419C5.99399 17.2377 5.26192 19.6858 4.77387 21.4367C4.28582 23.1876 4.0418 24.236 4.0055 25.4885C3.95773 26.9593 4.22185 28.4193 4.76983 29.7134C5.47102 31.3741 6.50376 32.767 7.76266 33.7497C8.96589 34.5933 10.3196 35.0222 11.6912 34.9944C12.865 35.0526 14.025 34.6547 15.0188 33.853C16.0978 32.9879 17.2372 31.5443 17.7515 30.4623C18.2657 29.3802 18.1548 28.6546 17.9128 28.0606C17.6708 27.4666 17.2856 26.9863 16.3398 25.8139C15.3939 24.6415 13.8874 22.777 12.9577 21.5787C12.028 20.3805 11.6771 19.8485 11.4896 19.0454C11.2757 18.1211 11.3105 17.1316 11.5884 16.2357C11.92 15.2805 12.5334 14.5322 13.2945 14.1543C13.6825 13.9595 14.0978 13.8696 14.5142 13.89C14.9307 13.9104 15.3394 14.0408 15.7146 14.273C16.493 14.7585 17.1626 15.7089 17.7132 16.4578C18.2637 17.2067 18.6973 17.749 19.1249 18.2965C19.5564 17.7516 19.99 17.2041 20.5366 16.4578C21.0831 15.7115 21.7587 14.7585 22.5372 14.273C22.9124 14.0408 23.3211 13.9104 23.7375 13.89C24.154 13.8696 24.5692 13.9595 24.9572 14.1543C25.7184 14.5322 26.3317 15.2805 26.6634 16.2357C26.9412 17.1316 26.976 18.1211 26.7622 19.0454C26.5746 19.8485 26.2237 20.3805 25.294 21.5787C24.3643 22.777 22.8558 24.6441 21.912 25.8139C20.9682 26.9837 20.583 27.4615 20.3389 28.0606C20.0949 28.6597 19.986 29.3802 20.5003 30.4623C21.0145 31.5443 22.154 32.9879 23.2329 33.853C24.2268 34.6547 25.3868 35.0526 26.5605 34.9944C27.9321 35.0222 29.2859 34.5933 30.4891 33.7497C31.748 32.767 32.7807 31.3741 33.4819 29.7134C34.029 28.4188 34.293 26.9592 34.2463 25.4885C34.21 24.236 33.9659 23.1876 33.4779 21.4367C32.9898 19.6858 32.2679 17.2351 31.5075 14.9419C30.7472 12.6487 29.9869 10.5105 29.1883 8.58139C28.3897 6.65232 27.5749 4.93759 26.4436 3.56891C25.3548 2.25926 24.06 1.26258 22.6461 0.645606C21.3796 0.108462 20.2542 0.0542309 19.1309 0Z" fill="#002D4C"/>
<path d="M48.7805 26.5393L48.1916 24.2457H43.6549L43.066 26.5393C43.0194 26.7241 42.9304 26.8845 42.8117 26.9979C42.6929 27.1113 42.5504 27.1719 42.4044 27.1711H41.2266C41.1579 27.1723 41.0901 27.1514 41.0287 27.1103C40.9674 27.0691 40.9144 27.0088 40.8741 26.9345C40.8339 26.8602 40.8077 26.7741 40.7976 26.6835C40.7875 26.5928 40.794 26.5002 40.8163 26.4135L44.4284 13.045C44.4788 12.8653 44.5692 12.7104 44.6875 12.6012C44.8057 12.4921 44.9461 12.4338 45.0899 12.4343H46.731C46.8743 12.4367 47.0137 12.4961 47.1316 12.6049C47.2494 12.7137 47.3403 12.8669 47.3926 13.045L50.9889 26.4135C51.0113 26.4983 51.0183 26.589 51.0093 26.6781C51.0003 26.7672 50.9757 26.8521 50.9374 26.9261C50.8991 27 50.8482 27.0607 50.7889 27.1033C50.7296 27.1459 50.6636 27.1691 50.5963 27.1711H49.4185C49.2765 27.1654 49.1393 27.1019 49.0252 26.9889C48.9112 26.876 48.8257 26.7191 48.7805 26.5393ZM47.5496 21.6978L45.9262 15.3177L44.3027 21.6978H47.5496Z" fill="#002D4C"/>
<path d="M59.5962 20.62V26.4058C59.5967 26.5065 59.5829 26.6063 59.5558 26.6995C59.5287 26.7926 59.4887 26.8773 59.4382 26.9485C59.3876 27.0197 59.3275 27.076 59.2614 27.1142C59.1952 27.1525 59.1244 27.1718 59.0529 27.1711H58.222C58.1506 27.1714 58.0799 27.1518 58.0138 27.1135C57.9478 27.0752 57.8878 27.0188 57.8373 26.9477C57.7868 26.8766 57.7468 26.7921 57.7196 26.6991C57.6924 26.6061 57.6785 26.5064 57.6788 26.4058V21.1734C57.6788 19.7912 57.2709 18.7479 56.1749 18.7479C55.0471 18.7479 54.5433 19.9183 54.5433 21.1734V26.4058C54.5448 26.6057 54.4901 26.7984 54.3911 26.9418C54.2922 27.0852 54.157 27.1676 54.0151 27.1711H53.1748C53.0329 27.1676 52.8977 27.0852 52.7987 26.9418C52.6997 26.7984 52.6451 26.6057 52.6466 26.4058V17.1538C52.6453 17.0543 52.658 16.9555 52.6839 16.863C52.7097 16.7704 52.7483 16.6859 52.7974 16.6144C52.8464 16.5428 52.905 16.4856 52.9697 16.4459C53.0345 16.4063 53.1042 16.385 53.1748 16.3832H54.0207C54.1626 16.3867 54.2978 16.4691 54.3968 16.6125C54.4957 16.7559 54.5504 16.9485 54.5489 17.1485V17.7072C54.9719 16.8334 55.6674 16.1184 56.784 16.1184C58.7202 16.1317 59.5962 18.3242 59.5962 20.62Z" fill="#002D4C"/>
<path d="M61.6426 13.8128C61.6441 13.5382 61.7055 13.2703 61.819 13.043C61.9326 12.8157 62.0931 12.6393 62.2805 12.5361C62.4678 12.4329 62.6734 12.4074 62.8714 12.463C63.0693 12.5186 63.2507 12.6527 63.3926 12.8483C63.5344 13.044 63.6304 13.2924 63.6684 13.5622C63.7064 13.832 63.6846 14.1111 63.6059 14.3641C63.5272 14.6171 63.395 14.8327 63.2261 14.9836C63.0572 15.1345 62.8592 15.214 62.6571 15.212C62.3865 15.2072 62.1282 15.0577 61.9382 14.7957C61.7483 14.5338 61.6421 14.1806 61.6426 13.8128ZM61.7029 26.4305V17.4772C61.7027 17.3799 61.7166 17.2834 61.7439 17.1934C61.7712 17.1034 61.8113 17.0216 61.862 16.9528C61.9126 16.884 61.9728 16.8294 62.039 16.7923C62.1053 16.7552 62.1762 16.7363 62.2479 16.7367H63.0813C63.153 16.736 63.2241 16.7547 63.2905 16.7916C63.3568 16.8286 63.4171 16.8831 63.4678 16.952C63.5185 17.0209 63.5586 17.1028 63.5858 17.193C63.613 17.2832 63.6268 17.3798 63.6263 17.4772V26.4305C63.6268 26.528 63.613 26.6246 63.5858 26.7147C63.5586 26.8049 63.5185 26.8868 63.4678 26.9557C63.4171 27.0246 63.3568 27.0791 63.2905 27.1161C63.2241 27.1531 63.153 27.1718 63.0813 27.1711H62.2479C62.1762 27.1714 62.1053 27.1525 62.039 27.1154C61.9728 27.0783 61.9126 27.0238 61.862 26.9549C61.8113 26.8861 61.7712 26.8043 61.7439 26.7143C61.7166 26.6243 61.7027 26.5279 61.7029 26.4305Z" fill="#002D4C"/>
<path d="M77.5858 20.4216V26.4049C77.5874 26.6051 77.5287 26.798 77.4224 26.9415C77.3161 27.0851 77.1709 27.1676 77.0185 27.1711H76.1099C76.0331 27.1718 75.957 27.1524 75.886 27.1142C75.815 27.0759 75.7504 27.0195 75.6961 26.9482C75.6419 26.8769 75.5989 26.7922 75.5698 26.6989C75.5406 26.6057 75.5259 26.5057 75.5264 26.4049V20.9756C75.5264 19.6342 75.1045 18.7381 74.1475 18.7381C73.1905 18.7381 72.6878 19.7402 72.6878 20.9756V26.4049C72.6883 26.5057 72.6736 26.6057 72.6445 26.6989C72.6153 26.7922 72.5724 26.8769 72.5181 26.9482C72.4638 27.0195 72.3993 27.0759 72.3282 27.1142C72.2572 27.1524 72.1811 27.1718 72.1043 27.1711H71.2119C71.1352 27.1718 71.0591 27.1524 70.988 27.1142C70.917 27.0759 70.8525 27.0195 70.7982 26.9482C70.7439 26.8769 70.7009 26.7922 70.6718 26.6989C70.6426 26.6057 70.6279 26.5057 70.6285 26.4049V20.9756C70.6285 19.6342 70.2065 18.7381 69.2495 18.7381C68.2925 18.7381 67.7898 19.7402 67.7898 20.9756V26.4049C67.7904 26.5057 67.7756 26.6057 67.7465 26.6989C67.7174 26.7922 67.6744 26.8769 67.6201 26.9482C67.5658 27.0195 67.5013 27.0759 67.4303 27.1142C67.3592 27.1524 67.2831 27.1718 67.2063 27.1711H66.314C66.2372 27.1718 66.1611 27.1524 66.09 27.1142C66.019 27.0759 65.9545 27.0195 65.9002 26.9482C65.8459 26.8769 65.8029 26.7922 65.7738 26.6989C65.7447 26.6057 65.7299 26.5057 65.7305 26.4049V17.1422C65.7299 17.0414 65.7447 16.9415 65.7738 16.8482C65.8029 16.7549 65.8459 16.6702 65.9002 16.5989C65.9545 16.5276 66.019 16.4712 66.09 16.433C66.1611 16.3947 66.2372 16.3754 66.314 16.3761H67.2164C67.2932 16.3754 67.3693 16.3947 67.4403 16.433C67.5114 16.4712 67.5759 16.5276 67.6302 16.5989C67.6845 16.6702 67.7275 16.7549 67.7566 16.8482C67.7857 16.9415 67.8004 17.0414 67.7999 17.1422V17.524C68.2219 16.7287 68.8861 16.1189 69.9743 16.1189C71.0625 16.1189 71.8217 16.8003 72.2436 17.8023C72.5192 17.2746 72.8901 16.8446 73.3231 16.5509C73.756 16.2572 74.2376 16.1088 74.7249 16.1189C76.6126 16.1189 77.5858 18.1205 77.5858 20.4216Z" fill="#002D4C"/>
<path d="M86.3456 16.3803H87.2272C87.303 16.3796 87.3782 16.3993 87.4484 16.4382C87.5186 16.4772 87.5823 16.5346 87.636 16.6072C87.6896 16.6798 87.732 16.766 87.7608 16.861C87.7896 16.956 87.8042 17.0578 87.8036 17.1604V26.5923C87.8042 26.695 87.7896 26.7967 87.7608 26.8917C87.732 26.9867 87.6896 27.073 87.636 27.1456C87.5823 27.2181 87.5186 27.2756 87.4484 27.3145C87.3782 27.3535 87.303 27.3732 87.2272 27.3724H86.3456C86.2698 27.3728 86.1947 27.3529 86.1247 27.3138C86.0546 27.2747 85.991 27.2173 85.9374 27.1447C85.8838 27.0722 85.8413 26.9861 85.8125 26.8913C85.7836 26.7965 85.7688 26.6949 85.7691 26.5923V26.0713C85.2565 26.9837 84.4387 27.6316 83.1761 27.6316C80.6609 27.6316 79.2188 24.7486 79.2188 21.8872C79.2188 19.0257 80.6609 16.1184 83.1761 16.1184C84.4407 16.1184 85.2585 16.769 85.7691 17.6787V17.1604C85.7688 17.0579 85.7836 16.9563 85.8125 16.8614C85.8413 16.7666 85.8838 16.6805 85.9374 16.608C85.991 16.5355 86.0546 16.478 86.1247 16.4389C86.1947 16.3999 86.2698 16.3799 86.3456 16.3803ZM85.6893 21.8872C85.6893 20.173 84.8915 18.7639 83.4952 18.7639C82.099 18.7639 81.3012 20.1946 81.3012 21.8872C81.3012 23.5797 82.099 25.0104 83.4952 25.0104C84.8915 25.0104 85.6813 23.5824 85.6813 21.8926L85.6893 21.8872Z" fill="#002D4C"/>
<path d="M90.4287 12.4343H91.3305C91.4818 12.4377 91.6259 12.5193 91.7314 12.6612C91.8369 12.8031 91.8952 12.9938 91.8936 13.1917V26.4137C91.8952 26.6116 91.8369 26.8023 91.7314 26.9442C91.6259 27.0861 91.4818 27.1677 91.3305 27.1711H90.4287C90.3526 27.1714 90.2772 27.1521 90.2068 27.1142C90.1364 27.0762 90.0725 27.0204 90.0186 26.95C89.9648 26.8796 89.9222 26.796 89.8932 26.7039C89.8641 26.6119 89.8493 26.5132 89.8496 26.4137V13.1917C89.8496 13.0922 89.8646 12.9937 89.8937 12.9018C89.9228 12.8099 89.9655 12.7264 90.0192 12.6561C90.073 12.5858 90.1369 12.53 90.2071 12.4919C90.2774 12.4539 90.3527 12.4343 90.4287 12.4343Z" fill="#002D4C"/>
<path d="M106.202 23.1027C106.202 25.4102 104.959 27.6316 101.979 27.6316C100.12 27.6316 98.4231 26.7728 97.681 24.9064C97.6426 24.8104 97.6209 24.7045 97.6176 24.5963C97.6143 24.4882 97.6294 24.3804 97.6619 24.2807C97.6944 24.181 97.7434 24.0918 97.8054 24.0195C97.8675 23.9472 97.941 23.8935 98.0209 23.8623L99.0385 23.4421C99.1598 23.3884 99.2915 23.3902 99.4119 23.4471C99.5323 23.5041 99.634 23.6129 99.7002 23.7553C100.024 24.4705 100.706 25.1623 101.961 25.1623C103.093 25.1623 103.998 24.5958 103.998 23.3167C103.998 21.8706 102.721 21.7636 100.927 21.1763C98.6504 20.4428 97.8902 18.9758 97.8902 16.9423C97.8902 14.1728 99.5232 12.4343 101.88 12.4343C103.513 12.4343 104.853 13.3557 105.5 15.0446C105.535 15.1453 105.553 15.2548 105.552 15.3655C105.551 15.4761 105.532 15.5851 105.495 15.6847C105.458 15.7843 105.404 15.8722 105.338 15.942C105.272 16.0118 105.195 16.0619 105.112 16.0887L104.094 16.402C103.974 16.4414 103.847 16.4276 103.733 16.3629C103.619 16.2981 103.524 16.1861 103.465 16.0444C103.206 15.4388 102.661 14.9141 101.768 14.9141C100.846 14.9141 100.056 15.5432 100.056 16.7413C100.056 18.3754 101.494 18.6286 102.544 18.9418C105.235 19.7484 106.202 20.756 106.202 23.1027Z" fill="#002D4C"/>
<path d="M114.555 16.3803H115.434C115.51 16.3796 115.586 16.3992 115.656 16.4382C115.726 16.4771 115.79 16.5345 115.844 16.607C115.897 16.6796 115.94 16.7658 115.969 16.8608C115.998 16.9558 116.013 17.0576 116.013 17.1604V26.5923C116.013 26.6951 115.998 26.7969 115.969 26.8919C115.94 26.9869 115.897 27.0732 115.844 27.1457C115.79 27.2183 115.726 27.2757 115.656 27.3146C115.586 27.3535 115.51 27.3732 115.434 27.3724H114.555C114.479 27.3732 114.404 27.3535 114.333 27.3146C114.263 27.2757 114.199 27.2183 114.146 27.1457C114.092 27.0732 114.049 26.9869 114.02 26.8919C113.991 26.7969 113.976 26.6951 113.977 26.5923V26.0713C113.464 26.9837 112.648 27.6316 111.384 27.6316C108.87 27.6316 107.428 24.7486 107.428 21.8872C107.428 19.0257 108.87 16.1184 111.384 16.1184C112.65 16.1184 113.466 16.769 113.977 17.6787V17.1604C113.976 17.0576 113.991 16.9558 114.02 16.8608C114.049 16.7658 114.092 16.6796 114.146 16.607C114.199 16.5345 114.263 16.4771 114.333 16.4382C114.404 16.3992 114.479 16.3796 114.555 16.3803ZM113.897 21.8872C113.897 20.173 113.099 18.7639 111.703 18.7639C110.307 18.7639 109.51 20.1946 109.51 21.8872C109.51 23.5797 110.307 25.0104 111.703 25.0104C113.099 25.0104 113.897 23.5824 113.897 21.8926V21.8872Z" fill="#002D4C"/>
<path d="M123.874 16.579H124.971C125.043 16.5785 125.114 16.6 125.177 16.6416C125.241 16.6832 125.295 16.7437 125.336 16.8177C125.377 16.8917 125.403 16.9772 125.411 17.0665C125.42 17.1559 125.411 17.2466 125.385 17.3307L122.656 26.565C122.605 26.7411 122.513 26.8934 122.391 27.0017C122.269 27.11 122.124 27.1691 121.975 27.171H120.677C120.528 27.1687 120.383 27.1095 120.261 27.0013C120.139 26.893 120.047 26.7408 119.995 26.565L117.268 17.3307C117.242 17.2466 117.233 17.1558 117.241 17.0661C117.25 16.9765 117.275 16.8908 117.316 16.8166C117.357 16.7423 117.412 16.6819 117.476 16.6404C117.54 16.599 117.611 16.5779 117.682 16.579H118.78C118.938 16.5807 119.091 16.6439 119.219 16.76C119.347 16.876 119.443 17.0391 119.494 17.2267L121.325 24.0782L123.153 17.2267C123.205 17.0382 123.302 16.8747 123.431 16.7587C123.56 16.6427 123.715 16.5798 123.874 16.579Z" fill="#002D4C"/>
<path d="M133.994 22.1891C133.992 22.3894 133.93 22.5807 133.82 22.7224C133.711 22.864 133.564 22.9448 133.409 22.9476H127.676C127.977 24.4025 128.924 25.1826 130.083 25.1826C130.691 25.186 131.281 24.9096 131.747 24.4025C131.815 24.3169 131.903 24.2639 131.997 24.2521C132.092 24.2403 132.186 24.2705 132.265 24.3377L133.218 25.0746C133.276 25.1207 133.325 25.1832 133.362 25.2574C133.398 25.3316 133.422 25.4157 133.43 25.5033C133.438 25.5908 133.43 25.6796 133.408 25.763C133.386 25.8463 133.349 25.9219 133.301 25.9843C132.436 27.0636 131.277 27.6554 130.076 27.6309C127.27 27.6309 125.414 25.2258 125.414 21.8868C125.414 18.4398 127.403 16.1184 129.741 16.1184C132.155 16.1184 134.111 18.3075 133.994 22.1891ZM131.895 20.8233C131.687 19.3711 130.925 18.5694 129.787 18.5694C128.747 18.5694 127.934 19.4143 127.682 20.8233H131.895Z" fill="#002D4C"/>
</g>
<defs>
<filter id="filter0_d_454_321" x="0" y="0" width="137.998" height="43" filterUnits="userSpaceOnUse" color-interpolation-filters="sRGB">
<feFlood flood-opacity="0" result="BackgroundImageFix"/>
<feColorMatrix in="SourceAlpha" type="matrix" values="0 0 0 0 0 0 0 0 0 0 0 0 0 0 0 0 0 0 127 0" result="hardAlpha"/>
<feOffset dy="4"/>
<feGaussianBlur stdDeviation="2"/>
<feComposite in2="hardAlpha" operator="out"/>
<feColorMatrix type="matrix" values="0 0 0 0 0 0 0 0 0 0 0 0 0 0 0 0 0 0 0.25 0"/>
<feBlend mode="normal" in2="BackgroundImageFix" result="effect1_dropShadow_454_321"/>
<feBlend mode="normal" in="SourceGraphic" in2="effect1_dropShadow_454_321" result="shape"/>
</filter>
</defs>
</svg>
