<?xml version="1.0" standalone="no"?>
<!DOCTYPE svg PUBLIC "-//W3C//DTD SVG 20010904//EN"
 "http://www.w3.org/TR/2001/REC-SVG-20010904/DTD/svg10.dtd">
<svg version="1.0" xmlns="http://www.w3.org/2000/svg"
 width="161.000000pt" height="175.000000pt" viewBox="0 0 161.000000 175.000000"
 preserveAspectRatio="xMidYMid meet">

<g transform="translate(0.000000,175.000000) scale(0.100000,-0.100000)"
fill="#000000" stroke="none">
<path d="M375 1675 c-70 -28 -95 -57 -129 -141 -48 -119 -56 -231 -21 -298 14
-27 13 -34 -7 -85 -21 -51 -23 -71 -22 -236 1 -174 2 -185 37 -320 28 -106 37
-159 37 -222 l0 -82 -54 -53 c-57 -56 -80 -114 -59 -147 14 -22 249 -29 277
-8 14 11 25 56 52 213 55 330 108 539 165 661 38 80 57 86 136 47 55 -28 173
-133 173 -154 0 -5 -34 -35 -75 -65 -155 -115 -218 -273 -219 -552 -1 -78 2
-145 7 -149 4 -4 110 -9 237 -12 206 -4 232 -3 256 13 l27 17 -6 152 c-8 206
-40 342 -118 501 -21 45 -39 86 -39 91 0 6 10 19 21 30 24 21 58 89 59 117 0
9 -12 27 -26 40 -14 12 -32 34 -40 49 -17 32 -19 118 -3 118 6 0 42 14 81 31
41 18 79 28 92 25 13 -3 38 4 64 19 37 21 44 22 49 9 3 -9 1 -31 -5 -50 -9
-31 -6 -43 23 -107 49 -106 75 -216 75 -316 0 -94 -11 -149 -65 -327 -57 -188
-49 -283 25 -290 36 -4 80 -42 80 -70 0 -11 -19 -14 -93 -14 -98 0 -109 -3
-100 -26 4 -11 30 -14 117 -14 62 0 115 2 118 5 10 10 -10 87 -29 114 -11 14
-40 33 -64 42 -44 16 -44 17 -47 69 -2 38 8 88 37 188 57 192 63 225 63 327
-1 103 -27 216 -72 314 -25 53 -29 71 -25 115 7 59 -5 110 -26 114 -9 1 -33
-11 -54 -28 -27 -22 -48 -30 -77 -30 -21 0 -60 -11 -86 -24 -26 -13 -66 -29
-88 -35 -38 -10 -42 -14 -47 -52 -7 -55 15 -134 47 -168 34 -36 33 -60 -7
-106 l-33 -38 -28 38 c-39 50 -135 119 -202 144 -49 19 -58 20 -82 7 -78 -40
-163 -313 -236 -756 l-32 -195 -112 -3 c-76 -2 -112 1 -112 8 0 31 52 97 86
110 45 18 47 182 5 353 -17 65 -35 154 -42 199 -15 101 -6 287 16 349 l16 47
64 -6 c61 -4 65 -3 94 25 69 69 41 240 -59 361 -17 20 -30 42 -30 49 0 18 105
53 160 53 65 0 78 -6 95 -45 21 -51 56 -69 149 -75 l81 -5 3 -49 c3 -47 2 -50
-52 -102 -42 -41 -68 -57 -118 -72 l-63 -20 2 -40 c2 -48 37 -122 58 -122 19
0 19 14 -1 67 -18 46 -14 73 11 73 45 0 163 87 191 141 21 41 18 122 -5 150
-16 20 -30 24 -107 29 l-89 5 -17 35 c-29 58 -51 70 -132 70 -52 0 -87 -7
-131 -25z m-34 -148 c111 -139 114 -317 5 -317 -76 0 -113 69 -96 178 11 66
47 172 58 172 4 0 19 -15 33 -33z m693 -795 c70 -141 105 -290 113 -478 5
-122 4 -131 -13 -138 -11 -4 -110 -4 -220 0 l-202 7 -6 48 c-8 59 9 234 29
314 18 68 77 184 108 213 43 39 142 109 150 105 4 -3 23 -35 41 -71z"/>
</g>
</svg>
