<svg width="30" height="36" viewBox="0 0 30 36" fill="none" xmlns="http://www.w3.org/2000/svg">
<path d="M5 27H25C25.6875 27 26.25 26.325 26.25 25.5C26.25 24.675 25.6875 24 25 24H5C4.3125 24 3.75 24.675 3.75 25.5C3.75 26.325 4.3125 27 5 27ZM5 19.5H25C25.6875 19.5 26.25 18.825 26.25 18C26.25 17.175 25.6875 16.5 25 16.5H5C4.3125 16.5 3.75 17.175 3.75 18C3.75 18.825 4.3125 19.5 5 19.5ZM3.75 10.5C3.75 11.325 4.3125 12 5 12H25C25.6875 12 26.25 11.325 26.25 10.5C26.25 9.675 25.6875 9 25 9H5C4.3125 9 3.75 9.675 3.75 10.5Z" fill="black"/>
</svg>
