<svg width="64" height="51" viewBox="0 0 64 51" fill="none" xmlns="http://www.w3.org/2000/svg">
<path d="M64 25.4356C64 26.1012 63.7191 26.7396 63.219 27.2103C62.7189 27.681 62.0406 27.9454 61.3334 27.9454H9.10513L28.5545 46.2478C28.8022 46.4809 28.9988 46.7578 29.1329 47.0624C29.2669 47.3671 29.336 47.6936 29.336 48.0234C29.336 48.3532 29.2669 48.6797 29.1329 48.9844C28.9988 49.2891 28.8022 49.5659 28.5545 49.7991C28.3067 50.0322 28.0126 50.2172 27.6889 50.3434C27.3652 50.4696 27.0183 50.5346 26.6679 50.5346C26.3175 50.5346 25.9706 50.4696 25.6469 50.3434C25.3232 50.2172 25.029 50.0322 24.7813 49.7991L0.782072 27.2113C0.534143 26.9782 0.337459 26.7014 0.203265 26.3967C0.0690715 26.092 0 25.7654 0 25.4356C0 25.1058 0.0690715 24.7792 0.203265 24.4745C0.337459 24.1699 0.534143 23.8931 0.782072 23.66L24.7813 1.07217C25.2816 0.601237 25.9603 0.33667 26.6679 0.33667C27.3755 0.33667 28.0541 0.601237 28.5545 1.07217C29.0549 1.5431 29.336 2.18182 29.336 2.84782C29.336 3.51382 29.0549 4.15254 28.5545 4.62347L9.10513 22.9259H61.3334C62.0406 22.9259 62.7189 23.1903 63.219 23.661C63.7191 24.1316 64 24.77 64 25.4356Z" fill="black"/>
</svg>
